<?xml version="1.0" standalone="no"?>
<!DOCTYPE svg PUBLIC "-//W3C//DTD SVG 20010904//EN"
 "http://www.w3.org/TR/2001/REC-SVG-20010904/DTD/svg10.dtd">
<svg version="1.0" xmlns="http://www.w3.org/2000/svg"
 width="71.000000pt" height="76.000000pt" viewBox="0 0 71.000000 76.000000"
 preserveAspectRatio="xMidYMid meet">

<g transform="translate(0.000000,76.000000) scale(0.100000,-0.100000)"
fill="#000000" stroke="none">
<path d="M155 615 l-25 -24 0 -219 c0 -207 1 -221 21 -246 28 -36 95 -32 121
8 4 6 8 111 8 234 l0 223 -25 24 c-13 14 -36 25 -50 25 -14 0 -37 -11 -50 -25z"/>
<path d="M445 595 c-41 -40 -29 -106 22 -126 83 -31 141 96 62 136 -39 21 -56
19 -84 -10z"/>
<path d="M497 363 c-4 -3 -7 -59 -7 -124 0 -95 3 -121 16 -134 15 -14 19 -14
47 3 18 10 42 34 55 53 20 28 23 43 19 88 -3 47 -9 59 -40 88 -34 30 -74 42
-90 26z"/>
</g>
</svg>
